JOHNNY WINTER LIVE  OLD GREY WHISTLE TEST 1979om the BBC Television programme.
Duration: 35 mins 40 sec
Format: Avi


The Old Grey Whistle Test (usually abbreviated to Whistle Test or OGWT) was an influential BBC2 television music show that ran from 1971 to 1988. It took over the BBC2 late night slot from "Disco Two", which had been running since January 1970, while continuing to feature non-chart music. It was devised by BBC producer Rowan Ayers. According to presenter Bob Harris, the programme derived its name from
... a 'tin pan alley' phrase from years ago. When they got the first pressing of a record they would play it to people they called the old greys [doormen in grey suits]. The ones they could remember and could whistle having heard it just once or twice had passed the old grey whistle test.

Johnny Winter has been a guitar hero without equal. Signing to Columbia records in 1969 called largest solo artist deal of it’s time, Johnny immediately laid out the blueprint for his fresh take on classic blues a prime combination for the legions of fans just discovering the blues via the likes of Jimmy Page and Eric Clapton. Constantly shifting between simple country blues in the vein of Robert Johnson, to all-out electric slide guitar blues-rock, – Johnny has always been one of the most respected singers and guitar players in rock and the clear link between British blues-rock and American Southern rock (a la the Allman Brothers and Lynyrd Skynyrd.) Throughout the ’70s and ’80s, Johnny was the unofficial torch-bearer for the blues, championing and aiding the careers of his idols like Muddy Waters and John Lee Hooker.


1 Hideaway 
2 Messin' with the Kid 
3 Mississippi Delta Blues 
4 Walkin by myself 
5 Rock and Roll 

Johnny Winter: Vocals, Guitar
John Paris       :Bass, Harmonica
Tom Compton: Drums

General
Complete name : F:\DVD\Johnny Winter Old Grey Whistle Test 1979.avi
Format                           : AVI
File size                        : 370 MiB
Duration                         : 35mn 40s
Overall bit rate                 : 1 450 Kbps
Writing library                  : Boilsoft AVI tool build 1/release

Video
ID                               : 0
Format                           : MPEG-4 Visual
Format profile                   : Advanced Simple@L5
Format settings, BVOP            : Yes
Format settings, QPel            : No
Format settings, GMC             : No warppoints
Format settings, Matrix          : Default (H.263)
Codec ID                         : XVID
Duration                         : 35mn 40s
Bit rate                         : 1 249 Kbps
Width                            : 640 pixels
Height                           : 480 pixels
Display aspect ratio             : 4:3
Frame rate                       : 25.000 fps
Color space                      : YUV
Chroma subsampling               : 4:2:0
Bit depth                        : 8 bits
Scan type                        : Progressive
Bits/(Pixel*Frame)               : 0.163
Stream size                      : 319 MiB (86%)
Writing library                  : XviD 1.1.2 (UTC 2006-11-01)

Audio
ID                               : 1
Format                        : MPEG Audio Version 1 Layer 3
Mode                             : Joint stereo
Codec ID                         : 55
Codec ID/Hint                    : MP3
Duration                         : 35mn 40s
Bit rate mode                    : Constant
Bit rate                         : 192 Kbps
Channel(s)                       : 2 channels
Sampling rate                    : 44.1 KHz
Stream size                      : 49.0 MiB (13%)
Alignment                        : Split accross interleaves
Interleave, duration             : 40 ms (1.00 video frame)
